# xmcd CD database file
#
# Track frame offsets:
#	150
#	991
#	17199
#	34289
#	50409
#	65355
#	78255
#	89347
#	105243
#	124153
#	138842
#	150826
#	165819
#	182825
#	200864
#	214317
#	229783
#	245610
#	263126
#	278574
#	293701
#
# Disc length: 4134 seconds
#
# Revision: 2
# Processed by: cddbd v1.4b41PL1 Copyright (c) Steve Scherf et al.
# Submitted via: Feurio! 1.52 - http://www.feurio.com
#
DISCID=13102415
DTITLE=Various Artist - Ballermann Hits Party-2001-CD1-
DYEAR=1900
DGENRE=
TTITLE0=??? - Intro Ballermann Hits -Party 2001
TTITLE1=DJ Ötzi - Hey Baby -2000-
TTITLE2=Antonia feat. Sandra - Ich Bin Viel Schöner -2000-
TTITLE3=DJ Sepp feat. Original Alpenland Quintett - Ist Das Ein Sauladen Hier 
TTITLE3=2000
TTITLE4=Stefan Raab feat. DJ Bundeskanzler - Ho Mir Ma Ne Flasche Bier -2000-
TTITLE5=Die Kolibris - Dann Sind Die Hände Da-2000-
TTITLE6=Toni Aus Dem Ötzital - Zillertaler Hochzeitsmarsch 2000-
TTITLE7=Marque - One To make Her Happy? -2000
TTITLE8=Melanie C. - I Turn To You -2000-
TTITLE9=Ibo - Ratzfatz Nach Mallorca -2000
TTITLE10=Alpenrammler - Alpenrammler Song -2000-
TTITLE11=Jürgen - Ich Bin Da -2000-
TTITLE12=Ralf Sögel - Verliebte Fischer -2000-
TTITLE13=Möhre - 20 Zentimenter (Ballermöhre Mix)-2000
TTITLE14=E.A.V. - Ba-Ba-Ballermann -2000-
TTITLE15=Coco Caribe - Carneval -2000-
TTITLE16=Hermes House Band - Na Na Hey Hey Kiss Him Goodbye -2000-
TTITLE17=Sheeba - Kung Fu Fighting -2000-
TTITLE18=Modern Talking feat. Eric Singleton - Brother Louie Mix '98 -1998-
TTITLE19=Wolfgang Petry - Wahnsinn -1983-
TTITLE20=Ballermann Allstars - Es Ist So Geil Ein Arschloch Zu Sein -2000-
EXTD=
EXTT0=
EXTT1=
EXTT2=
EXTT3=
EXTT4=
EXTT5=
EXTT6=
EXTT7=
EXTT8=
EXTT9=
EXTT10=
EXTT11=
EXTT12=
EXTT13=
EXTT14=
EXTT15=
EXTT16=
EXTT17=
EXTT18=
EXTT19=
EXTT20=
PLAYORDER=
